<?xml version="1.0" standalone="no"?>
<!DOCTYPE svg PUBLIC "-//W3C//DTD SVG 20010904//EN"
 "http://www.w3.org/TR/2001/REC-SVG-20010904/DTD/svg10.dtd">
<svg version="1.0" xmlns="http://www.w3.org/2000/svg"
 width="940.000000pt" height="940.000000pt" viewBox="0 0 940.000000 940.000000"
 preserveAspectRatio="xMidYMid meet">
<metadata>
Created by potrace 1.11, written by Peter Selinger 2001-2013
</metadata>
<g transform="translate(0.000000,940.000000) scale(0.100000,-0.100000)"
fill="#000000" stroke="none">
<path d="M4 6341 c-7 -8 -4 -3301 4 -3302 47 -6 1302 -2 1315 4 9 4 17 4 17 0
0 -10 452 -9 468 1 7 4 12 4 12 -1 0 -10 451 -9 468 1 7 4 12 4 12 -1 0 -10
451 -9 468 1 7 4 12 4 12 -1 0 -10 451 -9 468 1 7 4 12 4 12 -1 0 -10 451 -9
468 1 7 4 12 4 12 -1 0 -10 2692 -9 2708 1 7 4 12 4 12 -1 0 -10 451 -9 468 1
7 4 12 4 12 -1 0 -10 451 -9 468 1 7 4 12 4 12 -1 0 -10 451 -9 468 1 7 4 12
4 12 -1 0 -10 451 -9 468 1 7 4 12 4 12 -1 0 -10 451 -9 468 1 7 4 12 4 12 -1
0 -4 122 -8 270 -8 l270 0 -2 1654 -3 1655 -4693 0 c-2582 1 -4696 -1 -4698
-3z"/>
</g>
</svg>
